<?xml version="1.0" encoding="UTF-8" standalone="no"?>
<!-- Created with Inkscape (http://www.inkscape.org/) -->

<svg
   width="103mm"
   height="113mm"
   viewBox="0 0 103 113"
   version="1.1"
   id="svg5"
   inkscape:version="1.2.2 (732a01da63, 2022-12-09, custom)"
   sodipodi:docname="logo1.svg"
   inkscape:export-filename="../f25f99d6/logo1.png"
   inkscape:export-xdpi="96"
   inkscape:export-ydpi="96"
   xmlns:inkscape="http://www.inkscape.org/namespaces/inkscape"
   xmlns:sodipodi="http://sodipodi.sourceforge.net/DTD/sodipodi-0.dtd"
   xmlns="http://www.w3.org/2000/svg"
   xmlns:svg="http://www.w3.org/2000/svg">
  <sodipodi:namedview
     id="namedview7"
     pagecolor="#ffffff"
     bordercolor="#000000"
     borderopacity="0.25"
     inkscape:showpageshadow="false"
     inkscape:pageopacity="0"
     inkscape:pagecheckerboard="false"
     inkscape:deskcolor="#d1d1d1"
     inkscape:document-units="mm"
     showgrid="false"
     showborder="false"
     shape-rendering="auto"
     borderlayer="false"
     inkscape:zoom="0.68684764"
     inkscape:cx="-20.382977"
     inkscape:cy="567.08355"
     inkscape:window-width="1720"
     inkscape:window-height="1403"
     inkscape:window-x="20"
     inkscape:window-y="20"
     inkscape:window-maximized="0"
     inkscape:current-layer="layer1" />
  <defs
     id="defs2" />
  <g
     inkscape:label="Calque 1"
     inkscape:groupmode="layer"
     id="layer1">
    <path
       style="fill:#f1db66;fill-opacity:1;stroke-width:0.264583"
       d="m 32.457288,34.405927 c 0,0 24.506232,60.48312 5.933199,62.0029 -18.573033,1.51979 -9.386581,-22.56962 -18.410521,-6.51553 -9.02394,16.054103 14.510229,17.015633 20.402799,16.579253 5.892572,-0.43637 15.850955,-6.3771 15.769695,-11.670783 -0.0812,-5.29368 3.49402,15.026363 9.30684,14.728423 5.81281,-0.29794 9.79436,-2.5686 11.46162,-2.13222 1.66725,0.43637 -12.03042,-35.080063 -12.03042,-35.080063 0,0 16.17598,0.52365 20.11841,-4.77003 3.94242,-5.29368 2.68295,-8.89303 2.68295,-8.89303 0,0 -21.38088,13.81956 -29.14234,-6.44631 -7.761463,-20.26587 -5.973827,-17.08635 -5.973827,-17.08635 0,0 -1.584494,-6.079158 2.804837,-7.022633 C 59.76986,27.156082 100.37383,21.144637 98.0159,11.1697 95.65797,1.1947659 96.22676,0.91488093 96.22676,0.91488093 c 0,0 -6.62538,11.53084107 -22.80136,13.13790707 C 57.24942,15.659851 39.407693,13.947455 39.407693,13.947455 -7.1294682,16.761324 -4.7324142,30.543258 9.9809548,29.863114 24.694325,29.182971 28.271097,26.945419 29.693078,28.535931 c 1.421982,1.590513 2.76421,5.869996 2.76421,5.869996 z"
       id="path65" />
  </g>
</svg>
